<svg xmlns="http://www.w3.org/2000/svg" viewBox="0 0 94 30" preserveAspectRatio="xMidYMid meet" fill="none">
                  <path fill-rule="evenodd" clip-rule="evenodd" d="M25.54.636 39.905 15 25.54 29.364l-5.588-5.588-5.588 5.588L0 15 14.364.636l5.588 5.588L25.54.636ZM3.342 15l11.02 11.02v.004l3.918-3.918-7.104-7.104 7.104-7.105-3.917-3.917L3.343 15Zm22.04 0-5.431-5.432L14.518 15l5.433 5.432L25.383 15Zm3.341-.002.002.002v-.003l-.002.001Zm-7.102-7.102 7.103 7.102-7.103 7.103 3.918 3.918 11.02-11.02-11.02-11.021-3.918 3.918ZM46.06 20.39 50.05 9.61H53.332l4.034 10.78H54.27l-.572-1.74h-4.055l-.579 1.74h-3.004Zm5.592-7.778-1.266 3.804h2.577l-1.25-3.804h-.061ZM68.777 9.61h-2.895v5.759h-.03L61.154 9.61h-2.588v10.78h2.896v-5.96h.03l4.835 5.96h2.45V9.61Zm7.236-.139c1.171 0 2.177.229 3.02.686h-.002a4.727 4.727 0 0 1 1.94 1.932c.453.831.678 1.818.678 2.926 0 1.109-.237 2.077-.71 2.903a4.94 4.94 0 0 1-1.97 1.925c-.842.457-1.796.686-2.957.686-1.161 0-2.16-.229-2.996-.686a4.735 4.735 0 0 1-1.932-1.932c-.452-.831-.677-1.818-.677-2.926 0-1.109.233-2.078.7-2.911a4.813 4.813 0 0 1 1.972-1.926c.848-.452 1.826-.677 2.934-.677Zm1.41 8.1c.394-.185.7-.49.916-.916v-.003c.215-.425.323-.984.323-1.67 0-.688-.103-1.24-.308-1.656a1.876 1.876 0 0 0-.9-.9c-.396-.184-.877-.277-1.44-.277-.535 0-1 .093-1.395.277-.394.184-.7.487-.916.909-.215.421-.323 1-.323 1.679 0 .678.103 1.227.308 1.648.205.421.508.724.909.909.4.184.872.277 1.416.277.545 0 1.014-.093 1.41-.277Zm16.053 2.819V9.61h-2.895v5.759h-.03L85.853 9.61h-2.587v10.78h2.895v-5.96h.03l4.836 5.96h2.448Z" fill="CurrentColor"></path>
                </svg>