<svg width="116" height="13" viewBox="0 0 116 13" fill="none" xmlns="http://www.w3.org/2000/svg">
<g clip-path="url(#clip0_30_12)">
<rect width="116" height="13" fill="white"/>
<path d="M-0.183414 12.4254V9.96L4.72878 6.88293V6.80878L-0.183414 3.73171V1.26634L6.97171 5.90049V7.79122L-0.183414 12.4254ZM7.59471 12.4254V9.96L12.5069 6.88293V6.80878L7.59471 3.73171V1.26634L14.7498 5.90049V7.79122L7.59471 12.4254ZM15.3728 12.4254V9.96L20.285 6.88293V6.80878L15.3728 3.73171V1.26634L22.528 5.90049V7.79122L15.3728 12.4254Z" fill="#FB5F4B"/>
<path d="M31.3925 13V3.56488C31.3925 2.86049 31.5346 2.22406 31.8188 1.65561C32.1154 1.0748 32.5603 0.617559 33.1535 0.283901C33.759 -0.0497581 34.5437 -0.216587 35.5076 -0.216587C36.039 -0.216587 36.5395 -0.160978 37.0091 -0.0497581C37.4787 0.0491039 37.905 0.160323 38.2881 0.283901L37.7691 2.28585C37.4725 2.17463 37.1636 2.08813 36.8423 2.02634C36.5333 1.96455 36.1997 1.93366 35.8413 1.93366C35.2605 1.93366 34.8279 2.06341 34.5437 2.32293C34.2595 2.58244 34.1174 2.99024 34.1174 3.54634V13H31.3925ZM28.9642 5.93756V3.91707L31.4852 3.80585H37.2871V5.93756H28.9642ZM43.0077 13.2224C42.2044 13.2224 41.4444 13.0371 40.7277 12.6663C40.011 12.2833 39.4301 11.7333 38.9853 11.0166C38.5404 10.2875 38.3179 9.41626 38.3179 8.40293C38.3179 7.38959 38.5404 6.52455 38.9853 5.8078C39.4301 5.0787 40.011 4.52878 40.7277 4.15805C41.4444 3.77496 42.2044 3.58341 43.0077 3.58341C43.811 3.58341 44.571 3.77496 45.2877 4.15805C46.0044 4.52878 46.5853 5.0787 47.0301 5.8078C47.475 6.52455 47.6975 7.38959 47.6975 8.40293C47.6975 9.41626 47.475 10.2875 47.0301 11.0166C46.5853 11.7333 46.0044 12.2833 45.2877 12.6663C44.571 13.0371 43.811 13.2224 43.0077 13.2224ZM43.0077 11.0166C43.4279 11.0166 43.7739 10.9115 44.0457 10.7015C44.33 10.4914 44.5401 10.1886 44.676 9.79317C44.8243 9.39772 44.8984 8.93431 44.8984 8.40293C44.8984 7.87154 44.8243 7.40813 44.676 7.01268C44.5401 6.61723 44.33 6.31447 44.0457 6.10439C43.7739 5.89431 43.4279 5.78927 43.0077 5.78927C42.5875 5.78927 42.2353 5.89431 41.9511 6.10439C41.6792 6.31447 41.4692 6.61723 41.3209 7.01268C41.1849 7.40813 41.117 7.87154 41.117 8.40293C41.117 8.93431 41.1849 9.39772 41.3209 9.79317C41.4692 10.1886 41.6792 10.4914 41.9511 10.7015C42.2353 10.9115 42.5875 11.0166 43.0077 11.0166ZM49.2288 13V3.80585H51.4531L51.6756 5.8078H51.7312C52.1884 5.05398 52.7383 4.49789 53.3809 4.13951C54.0359 3.76878 54.7279 3.58341 55.457 3.58341C55.8648 3.58341 56.1923 3.61431 56.4395 3.6761C56.699 3.73789 56.9647 3.83057 57.2366 3.95415L56.6805 6.23415C56.3962 6.14764 56.1367 6.08585 55.9019 6.04878C55.6795 5.99935 55.3953 5.97463 55.0492 5.97463C54.4808 5.97463 53.9185 6.14146 53.3624 6.47512C52.8187 6.80878 52.3491 7.38959 51.9536 8.21756V13H49.2288ZM62.642 13.2224C61.6905 13.2224 60.8254 13.0371 60.0469 12.6663C59.2807 12.2833 58.669 11.7333 58.2118 11.0166C57.7669 10.2875 57.5444 9.41626 57.5444 8.40293C57.5444 7.40195 57.7731 6.54309 58.2303 5.82634C58.6875 5.09723 59.2807 4.54114 60.0098 4.15805C60.7389 3.77496 61.5113 3.58341 62.3269 3.58341C63.2784 3.58341 64.0755 3.78114 64.7181 4.17658C65.3607 4.55967 65.8426 5.08488 66.164 5.75219C66.4976 6.40715 66.6644 7.1548 66.6644 7.99512C66.6644 8.24228 66.6459 8.48325 66.6088 8.71805C66.5841 8.94049 66.5594 9.10732 66.5347 9.21854H59.5649V7.38341H64.6996L64.2732 7.90244C64.2732 7.16098 64.1126 6.60488 63.7913 6.23415C63.4823 5.85106 63.0251 5.65951 62.4196 5.65951C61.9747 5.65951 61.5854 5.75837 61.2518 5.9561C60.9181 6.15382 60.6586 6.45658 60.4732 6.86439C60.2879 7.27219 60.1952 7.78504 60.1952 8.40293C60.1952 9.03317 60.3064 9.55219 60.5288 9.96C60.7513 10.3554 61.0726 10.652 61.4927 10.8498C61.9129 11.0475 62.4196 11.1463 63.0127 11.1463C63.4329 11.1463 63.8283 11.0907 64.1991 10.9795C64.5822 10.8683 64.9776 10.7076 65.3854 10.4976L66.2937 12.1473C65.7623 12.481 65.1753 12.7467 64.5327 12.9444C63.8901 13.1298 63.2599 13.2224 62.642 13.2224ZM70.5684 13L67.1021 3.80585H69.8455L71.2913 8.14341C71.4396 8.60065 71.5818 9.06406 71.7177 9.53366C71.8536 10.0033 71.9896 10.4852 72.1255 10.9795H72.1996C72.3356 10.4852 72.4653 10.0033 72.5889 9.53366C72.7248 9.06406 72.867 8.60065 73.0152 8.14341L74.4611 3.80585H77.0748L73.7011 13H70.5684ZM82.647 13.2224C81.6955 13.2224 80.8304 13.0371 80.0519 12.6663C79.2857 12.2833 78.674 11.7333 78.2168 11.0166C77.7719 10.2875 77.5495 9.41626 77.5495 8.40293C77.5495 7.40195 77.7781 6.54309 78.2353 5.82634C78.6926 5.09723 79.2857 4.54114 80.0148 4.15805C80.7439 3.77496 81.5163 3.58341 82.3319 3.58341C83.2834 3.58341 84.0805 3.78114 84.7231 4.17658C85.3657 4.55967 85.8477 5.08488 86.169 5.75219C86.5026 6.40715 86.6695 7.1548 86.6695 7.99512C86.6695 8.24228 86.6509 8.48325 86.6139 8.71805C86.5891 8.94049 86.5644 9.10732 86.5397 9.21854H79.57V7.38341H84.7046L84.2782 7.90244C84.2782 7.16098 84.1176 6.60488 83.7963 6.23415C83.4874 5.85106 83.0301 5.65951 82.4246 5.65951C81.9797 5.65951 81.5904 5.75837 81.2568 5.9561C80.9231 6.15382 80.6636 6.45658 80.4782 6.86439C80.2929 7.27219 80.2002 7.78504 80.2002 8.40293C80.2002 9.03317 80.3114 9.55219 80.5339 9.96C80.7563 10.3554 81.0776 10.652 81.4978 10.8498C81.9179 11.0475 82.4246 11.1463 83.0178 11.1463C83.4379 11.1463 83.8334 11.0907 84.2041 10.9795C84.5872 10.8683 84.9826 10.7076 85.3904 10.4976L86.2987 12.1473C85.7674 12.481 85.1804 12.7467 84.5378 12.9444C83.8952 13.1298 83.2649 13.2224 82.647 13.2224ZM88.1266 13V3.80585H90.351L90.5734 5.8078H90.6291C91.0863 5.05398 91.6362 4.49789 92.2788 4.13951C92.9338 3.76878 93.6258 3.58341 94.3549 3.58341C94.7627 3.58341 95.0902 3.61431 95.3373 3.6761C95.5969 3.73789 95.8626 3.83057 96.1344 3.95415L95.5783 6.23415C95.2941 6.14764 95.0346 6.08585 94.7998 6.04878C94.5773 5.99935 94.2931 5.97463 93.9471 5.97463C93.3786 5.97463 92.8164 6.14146 92.2603 6.47512C91.7165 6.80878 91.2469 7.38959 90.8515 8.21756V13H88.1266ZM99.9086 13L96.2569 0.914145H99.1486L100.594 6.54927C100.78 7.21658 100.941 7.86537 101.076 8.49561C101.225 9.1135 101.385 9.7561 101.558 10.4234H101.633C101.83 9.7561 101.997 9.1135 102.133 8.49561C102.281 7.86537 102.442 7.21658 102.615 6.54927L104.042 0.914145H106.823L103.19 13H99.9086ZM107.057 13V0.914145H109.911L111.098 5.1961L111.505 6.86439H111.579L111.987 5.1961L113.174 0.914145H116.028V13H113.73V9.25561C113.73 8.92195 113.742 8.50797 113.767 8.01366C113.791 7.50699 113.822 6.98179 113.859 6.43805C113.897 5.89431 113.934 5.37528 113.971 4.88097C114.02 4.38667 114.057 3.97886 114.082 3.65756H114.026L113.099 6.88293L112.173 9.79317H110.838L109.893 6.88293L109.021 3.65756H108.966C108.991 3.97886 109.021 4.38667 109.058 4.88097C109.108 5.37528 109.151 5.89431 109.188 6.43805C109.225 6.98179 109.256 7.50699 109.281 8.01366C109.306 8.50797 109.318 8.92195 109.318 9.25561V13H107.057Z" fill="black"/>
</g>
<defs>
<clipPath id="clip0_30_12">
<rect width="116" height="13" fill="white"/>
</clipPath>
</defs>
</svg>
