<svg width="33" height="24" viewBox="0 0 33 24" fill="none" xmlns="http://www.w3.org/2000/svg" class="logo">
          <path fill-rule="evenodd" clip-rule="evenodd" d="M0.5 7.89187C0.5 3.80945 3.95383 0.5 8.21434 0.5H24.5002V7.07055H8.21434C7.74095 7.07055 7.35719 7.43827 7.35719 7.89187C7.35719 8.34547 7.74095 8.71319 8.21434 8.71319H16.7858C21.0463 8.71319 24.5002 12.0226 24.5002 16.1051C24.5002 20.1875 21.0463 23.4969 16.7858 23.4969H0.5V16.9264H16.7858C17.2592 16.9264 17.643 16.5587 17.643 16.1051C17.643 15.6515 17.2592 15.2837 16.7858 15.2837H8.21434C3.95383 15.2837 0.5 11.9743 0.5 7.89187Z" fill="#000"></path>
          <path fill-rule="evenodd" clip-rule="evenodd" d="M25.6428 23.5V7.89494C25.6428 7.44134 25.2591 7.07362 24.7857 7.07362H12.7856V0.50307H24.7857C29.0462 0.50307 32.5 3.81252 32.5 7.89494V23.5H25.6428Z" fill="#00"></path>
</svg>