<svg width="132" height="20" viewBox="0 0 132 20" fill="none" xmlns="http://www.w3.org/2000/svg">
<path d="M20.9994 17.3077L15.8378 13.2861C15.5704 13.0596 15.2028 13.015 14.9169 13.1747C14.7089 13.2898 14.5678 13.4755 14.5195 13.7057C14.4713 13.9322 14.5195 14.1662 14.6532 14.3519L17.1858 17.1443H4.1666L13.0936 5.23548C13.2904 4.97554 13.3238 4.63019 13.179 4.34055C13.0342 4.04719 12.7408 3.86523 12.414 3.86523C12.1652 3.86523 11.9276 3.97292 11.7642 4.16231L0.289812 17.5788C-0.0629603 18.0653 -0.0963808 18.7188 0.204404 19.2387C0.475482 19.7103 0.99907 19.9999 1.56722 19.9999H20.0822C20.6504 19.9999 21.1739 19.7066 21.445 19.2387C21.4747 19.1867 21.5007 19.1347 21.5267 19.079C21.7978 18.4514 21.5453 17.7162 20.9994 17.304V17.3077Z" fill="#3D4662"/>
<path d="M0.644753 2.69225L5.7878 6.71385C6.05517 6.94037 6.42279 6.98493 6.70872 6.82525C6.91668 6.71014 7.05778 6.52447 7.10606 6.29424C7.15433 6.06772 7.10606 5.83378 6.97238 5.64811L4.45841 2.85563H17.459L8.532 14.7645C8.33519 15.0244 8.30177 15.3698 8.44659 15.6594C8.59142 15.9528 8.88477 16.1347 9.21155 16.1347C9.46035 16.1347 9.69801 16.027 9.8614 15.8377L21.3358 2.42117C21.6886 1.93471 21.722 1.28116 21.4212 0.76128C21.1501 0.28968 20.6265 3.4843e-05 20.0584 3.4843e-05H1.56196C0.990098 -0.00367855 0.470223 0.28968 0.199146 0.757567C0.169439 0.809555 0.143445 0.861542 0.117451 0.917243C-0.153627 1.54481 0.098884 2.28006 0.644753 2.69225Z" fill="#3D4662"/>
<path d="M38.9304 5.88081C39.0938 5.66543 39.1867 5.39807 39.1867 5.12699C39.1867 4.44373 38.6297 3.88672 37.9464 3.88672H28.7892C28.7075 3.88672 28.6406 3.95356 28.6406 4.03525V6.06648C28.6406 6.14818 28.7075 6.21502 28.7892 6.21502H35.5253L28.8969 14.8598C28.7335 15.0752 28.6406 15.3425 28.6406 15.6136C28.6406 16.2969 29.1976 16.8539 29.8809 16.8539H39.454V14.5256H32.3317L38.9304 5.8771V5.88081Z" fill="#3D4662"/>
<path d="M47.3196 3.53711C43.3425 3.53711 40.4609 6.41128 40.4609 10.3698C40.4609 14.3282 43.3685 17.2024 47.535 17.2024C49.8892 17.2024 51.7979 16.3075 53.0531 14.6179L53.1013 14.551L51.0627 13.3627L51.0218 13.4147C50.242 14.3951 48.9795 14.9595 47.5572 14.9595C45.2067 14.9595 43.5356 13.7229 43.0826 11.6472L43.0306 11.4058H53.7475L53.7549 11.3427C53.8032 10.9639 53.8292 10.6631 53.8292 10.4032C53.8292 6.49297 51.0293 3.54454 47.3159 3.54454L47.3196 3.53711ZM43.012 9.44883L43.0603 9.21117C43.4911 7.04998 45.073 5.76143 47.2936 5.76143C48.946 5.76143 50.8696 6.6675 51.3152 9.21489L51.356 9.44883H43.012Z" fill="#3D4662"/>
<path d="M62.7112 3.88527H59.5437V0.320411C59.5437 0.238716 59.4769 0.171875 59.3952 0.171875H57.2043C57.1226 0.171875 57.0557 0.238716 57.0557 0.320411V3.88527H54.7423C54.6606 3.88527 54.5938 3.95211 54.5938 4.0338V6.11702C54.5938 6.19871 54.6606 6.26555 54.7423 6.26555H57.0557V12.8828C57.0557 14.331 57.3751 15.3485 58.0249 15.9984C58.6896 16.6556 59.7442 16.975 61.2556 16.975C61.7198 16.975 62.2359 16.9453 62.7929 16.8859L62.8598 16.8784V14.6727H62.7818C62.429 14.6912 62.1097 14.7024 61.82 14.7024C60.3792 14.7024 59.5437 14.4053 59.5437 12.8828V6.26927H62.7112C62.7929 6.26927 62.8598 6.20243 62.8598 6.12073V4.03752C62.8598 3.95582 62.7929 3.88898 62.7112 3.88898V3.88527Z" fill="#3D4662"/>
<path d="M77.7233 3.88422H75.5324C75.4507 3.88422 75.3839 3.95106 75.3839 4.03275V6.19395L75.0237 5.70006C73.9876 4.28526 72.4243 3.53516 70.5045 3.53516C66.8839 3.53516 64.0469 6.53558 64.0469 10.3678C64.0469 14.2 66.9433 17.2004 70.5045 17.2004C72.4317 17.2004 73.9951 16.4429 75.0237 15.0095L75.3876 14.5045V16.7029C75.3876 16.7845 75.4544 16.8514 75.5361 16.8514H77.727C77.8087 16.8514 77.8756 16.7845 77.8756 16.7029V4.03275C77.8756 3.95106 77.8087 3.88422 77.727 3.88422H77.7233ZM70.9575 14.8499C68.4361 14.8499 66.5311 12.9263 66.5311 10.3715C66.5311 7.8167 68.4324 5.89316 70.9575 5.89316C73.4826 5.89316 75.3839 7.8167 75.3839 10.3715C75.3839 12.9263 73.4826 14.8499 70.9575 14.8499Z" fill="#3D4662"/>
<path d="M87.6129 0.171875H85.422C85.3399 0.171875 85.2734 0.238377 85.2734 0.320411V16.7076C85.2734 16.7897 85.3399 16.8562 85.422 16.8562H87.6129C87.6949 16.8562 87.7614 16.7897 87.7614 16.7076V0.320411C87.7614 0.238377 87.6949 0.171875 87.6129 0.171875Z" fill="#3D4662"/>
<path d="M103.536 3.88422H101.345C101.263 3.88422 101.196 3.95106 101.196 4.03275V6.19395L100.836 5.70006C99.8001 4.28526 98.2405 3.53516 96.317 3.53516C92.6964 3.53516 89.8594 6.53558 89.8594 10.3678C89.8594 14.2 92.7558 17.2004 96.317 17.2004C98.2442 17.2004 99.8076 16.4429 100.832 15.0095L101.193 14.5045V16.7029C101.193 16.7845 101.259 16.8514 101.341 16.8514H103.532C103.614 16.8514 103.681 16.7845 103.681 16.7029V4.03275C103.681 3.95106 103.614 3.88422 103.532 3.88422H103.536ZM96.77 14.8499C94.2486 14.8499 92.3436 12.9263 92.3436 10.3715C92.3436 7.8167 94.2449 5.89316 96.77 5.89316C99.2951 5.89316 101.193 7.8167 101.193 10.3715C101.193 12.9263 99.2914 14.8499 96.77 14.8499Z" fill="#3D4662"/>
<path d="M113.524 3.53992C111.604 3.53992 110.04 4.29003 109.004 5.70483L108.644 6.19871V0.320411C108.644 0.238716 108.577 0.171875 108.496 0.171875H106.305C106.223 0.171875 106.156 0.238716 106.156 0.320411V16.7076C106.156 16.7893 106.223 16.8562 106.305 16.8562H108.496C108.577 16.8562 108.644 16.7893 108.644 16.7076V14.5093L109.004 15.0143C110.029 16.4477 111.593 17.2052 113.524 17.2052C117.085 17.2052 119.981 14.1417 119.981 10.3726C119.981 6.60347 117.144 3.53992 113.524 3.53992ZM113.071 14.8509C110.549 14.8509 108.644 12.9274 108.644 10.3726C108.644 7.81775 110.545 5.89421 113.071 5.89421C115.596 5.89421 117.493 7.81775 117.493 10.3726C117.493 12.9274 115.592 14.8509 113.071 14.8509Z" fill="#3D4662"/>
<path d="M126.764 9.30948C125.323 8.90844 123.96 8.52967 123.96 7.37481C123.96 6.39076 124.803 5.75948 126.11 5.75948C127.261 5.75948 128.149 6.23851 128.673 7.14457L128.71 7.2077L130.785 6.0417L130.745 5.97486C129.813 4.42637 128.123 3.53516 126.107 3.53516C123.344 3.53516 121.413 5.13563 121.413 7.42679C121.413 10.0819 123.838 10.7688 125.787 11.3221C127.235 11.7343 128.606 12.1205 128.606 13.2568C128.606 14.7348 127.057 14.9538 126.133 14.9538C124.707 14.9538 123.63 14.33 123.099 13.1937L123.065 13.1194L120.938 14.356L120.967 14.4191C121.862 16.1904 123.745 17.2042 126.133 17.2042C129.178 17.2042 131.146 15.6668 131.146 13.2865C131.146 10.5312 128.713 9.85535 126.756 9.30948H126.764Z" fill="#3D4662"/>
</svg>
